<?xml version="1.0" encoding="UTF-8" standalone="no"?>
<!-- Created with Inkscape (http://www.inkscape.org/) -->

<svg
   xmlns:dc="http://purl.org/dc/elements/1.1/"
   xmlns:cc="http://creativecommons.org/ns#"
   xmlns:rdf="http://www.w3.org/1999/02/22-rdf-syntax-ns#"
   xmlns:svg="http://www.w3.org/2000/svg"
   xmlns="http://www.w3.org/2000/svg"
   xmlns:sodipodi="http://sodipodi.sourceforge.net/DTD/sodipodi-0.dtd"
   xmlns:inkscape="http://www.inkscape.org/namespaces/inkscape"
   width="60mm"
   height="60mm"
   viewBox="0 0 60 60"
   version="1.1"
   id="svg8"
   inkscape:version="0.92.3 (2405546, 2018-03-11)"
   sodipodi:docname="org-certh.svg">
  <defs
     id="defs2" />
  <sodipodi:namedview
     id="base"
     pagecolor="#ffffff"
     bordercolor="#666666"
     borderopacity="1.0"
     inkscape:pageopacity="0.0"
     inkscape:pageshadow="2"
     inkscape:zoom="0.98994949"
     inkscape:cx="-237.48869"
     inkscape:cy="131.74435"
     inkscape:document-units="mm"
     inkscape:current-layer="layer1"
     showgrid="false"
     inkscape:window-width="1920"
     inkscape:window-height="1017"
     inkscape:window-x="3113"
     inkscape:window-y="1072"
     inkscape:window-maximized="1" />
  <metadata
     id="metadata5">
    <rdf:RDF>
      <cc:Work
         rdf:about="">
        <dc:format>image/svg+xml</dc:format>
        <dc:type
           rdf:resource="http://purl.org/dc/dcmitype/StillImage" />
        <dc:title></dc:title>
      </cc:Work>
    </rdf:RDF>
  </metadata>
  <g
     inkscape:label="Layer 1"
     inkscape:groupmode="layer"
     id="layer1"
     transform="translate(0,-237)">
    <path
       style="fill:#dcdcdc;fill-opacity:1;stroke-width:0.26666668"
       d="M 24.925952,295.46258 C 24.775227,295.35483 24.518823,294.96667 24.356165,294.6 l -0.295741,-0.66667 -0.192456,0.73334 c -0.211821,0.80712 -0.695191,0.91488 -1.734638,0.38672 -0.498906,-0.2535 -0.645986,-0.51406 -0.584488,-1.03546 0.109334,-0.92696 -1.024053,-1.49554 -3.646604,-1.82935 -1.866007,-0.23751 -2.033008,-0.31693 -3.333334,-1.58515 -0.752899,-0.73431 -1.505898,-1.33548 -1.673332,-1.33594 -0.167433,-5.3e-4 -0.382458,0.31009 -0.477832,0.69009 -0.120465,0.47997 -0.298781,0.6428 -0.584052,0.53333 -0.225854,-0.0867 -0.52083,-0.15758 -0.655501,-0.15758 -0.13467,0 -0.244856,-0.27668 -0.244856,-0.61486 0,-0.67205 -0.604501,-1.54424 -2.3461807,-3.38514 -0.624428,-0.66 -1.2074,-1.5 -1.295493,-1.86666 -0.179737,-0.74811 -1.158469,-2.48664 -1.475275,-2.62055 -0.466876,-0.19734 -1.7538912,-2.42939 -1.9241712,-3.33707 -0.100676,-0.53664 -0.297609,-0.97572 -0.43763,-0.97572 -0.324992,0 -0.327618,-1.21552 -0.0051,-2.34024 0.13724,-0.47852 0.14835,-0.80752 0.02469,-0.73109 -0.123661,0.0764 -0.218864,-1.15126 -0.211561,-2.72819 0.0073,-1.57693 -0.07769,-4.09534 -0.188875,-5.59646 l -0.202154,-2.72932 -0.969146,-0.26919 c -0.53303,-0.14806 -1.18711607,-0.26987 -1.45352477,-0.27069 -0.370828,-0.001 -0.464599,-0.1734 -0.4,-0.73482 0.06771,-0.58849 0.35869,-0.865 1.47322877,-1.4 0.999478,-0.47976 1.343179,-0.77881 1.225948,-1.06666 -0.443912,-1.09001 -0.220215,-1.73069 0.773937,-2.21658 0.677558,-0.33116 1.0930659,-0.77177 1.3202372,-1.4 0.185219,-0.51222 0.51545,-0.91676 0.748358,-0.91676 0.367884,0 1.342669,-1.7276 1.342669,-2.3796 0,-0.13344 0.15,-0.29361 0.333334,-0.35593 0.211611,-0.0719 0.333333,-0.63997 0.333333,-1.55556 0,-1.42225 0.01163,-1.44337 0.838742,-1.52372 0.461308,-0.0448 1.039138,-0.30291 1.284066,-0.57356 0.3815287,-0.42158 0.4011357,-0.65618 0.136867,-1.63759 -0.271606,-1.00867 -0.251666,-1.18705 0.1669027,-1.49311 0.566634,-0.41434 1.440089,-0.45926 1.440089,-0.0741 0,0.53355 1.562434,-0.53637 1.647734,-1.12834 0.05832,-0.40472 0.355136,-0.671 0.931342,-0.83552 0.693752,-0.19807 0.837523,-0.36741 0.8,-0.94223 -0.04463,-0.68379 -0.007,-0.70076 1.554258,-0.70076 0.913959,0 1.751037,-0.14287 1.952254,-0.3332 0.193741,-0.18327 0.821475,-0.40824 1.394966,-0.49995 0.573491,-0.0917 1.175443,-0.32667 1.337671,-0.52214 0.186097,-0.22423 0.581635,-0.29807 1.0717,-0.20005 0.656987,0.13139 0.776741,0.0706 0.776741,-0.39456 0,-0.48244 0.117771,-0.53079 0.960022,-0.39411 0.641677,0.10413 1.030674,0.0415 1.173087,-0.18896 0.136808,-0.22136 0.389717,-0.26845 0.706645,-0.13157 0.640885,0.2768 1.359425,0.19139 2.402585,-0.28558 0.463285,-0.21183 1.033285,-0.31187 1.266667,-0.22231 0.50132,0.19237 0.572485,0.90395 0.09099,0.90985 -0.2306,0.003 -0.242922,0.0645 -0.03998,0.2 0.161342,0.10775 0.361867,0.37592 0.445614,0.59592 0.08375,0.22 0.161738,0.0128 0.173317,-0.46052 0.01499,-0.61234 0.215731,-0.98808 0.696043,-1.30279 0.790097,-0.51769 0.856217,-0.48081 0.994918,0.5549 0.102043,0.76198 0.139952,0.78008 1.484071,0.70874 0.989811,-0.0525 1.379355,0.0244 1.379355,0.27256 0,0.19018 0.186805,0.0791 0.41512,-0.24689 0.26909,-0.38418 0.691226,-0.59267 1.2,-0.59267 0.723697,0 0.787291,0.0779 0.815814,1 0.01701,0.55 0.08581,0.79 0.152888,0.53333 0.141992,-0.54335 0.512562,-0.61331 0.706236,-0.13333 0.107603,0.26667 0.138712,0.26667 0.155555,0 0.01187,-0.18791 0.370059,-0.33333 0.821053,-0.33333 0.637606,0 0.8,0.11489 0.8,0.56598 0,0.47286 0.06581,0.51137 0.4,0.23402 0.22,-0.18259 0.4,-0.4902 0.4,-0.68358 0,-0.52 0.41967,-0.68845 1.216756,-0.48839 0.631277,0.15844 0.692267,0.27431 0.563155,1.06994 -0.151443,0.93323 0.180064,1.47177 0.458816,0.74535 0.0887,-0.23115 0.161273,-0.77046 0.161273,-1.19847 0,-0.428 0.113195,-0.77819 0.251547,-0.77819 0.454731,0 1.081787,1.16922 1.081787,2.01713 0,0.73938 0.118504,0.86729 1.066666,1.15137 0.85951,0.25751 1.066667,0.44392 1.066667,0.9598 0,0.35213 0.109171,0.7077 0.242603,0.79016 0.422443,0.26109 1.090731,-0.15575 1.090731,-0.68032 0,-0.27764 0.106992,-0.5048 0.237758,-0.5048 0.358836,0 0.595625,1.237 0.395604,2.06666 l -0.176799,0.73334 0.730511,-0.77455 c 0.585656,-0.62095 0.777563,-0.70027 0.967795,-0.4 0.425176,0.67113 0.567256,2.03932 0.269541,2.5956 -0.427056,0.79796 -0.368976,0.85462 0.442256,0.43144 0.403333,-0.2104 1.005619,-0.38328 1.338413,-0.38418 0.497081,-10e-4 0.577828,0.10695 0.452383,0.60676 -0.142977,0.56966 -0.08386,0.60185 0.92825,0.50533 1.232133,-0.11751 1.374149,0.21244 0.674106,1.56617 -0.239437,0.46302 -0.292525,0.78676 -0.129019,0.78676 0.152806,0 0.475662,-0.41486 0.717459,-0.92191 0.241795,-0.50705 0.539853,-0.85997 0.662352,-0.78426 0.406789,0.2514 0.230325,2.11182 -0.298741,3.14955 l -0.521462,1.02282 1.610726,-0.18223 c 1.462026,-0.16541 1.602486,-0.13769 1.521461,0.30023 -0.04909,0.26536 -0.476664,0.66247 -0.950157,0.88247 -1.14636,0.53263 -1.203763,1.38626 -0.07808,1.16113 0.693525,-0.13871 0.831181,-0.062 1.084485,0.60422 0.260489,0.68514 0.213388,0.82669 -0.461024,1.3855 l -0.751152,0.6224 1.128725,-0.17596 c 1.043252,-0.16262 1.153519,-0.12154 1.456116,0.54259 0.275341,0.60431 0.259909,0.76788 -0.09707,1.02891 -0.249576,0.1825 -0.464968,0.81833 -0.522782,1.54323 l -0.09832,1.23285 0.866666,-0.14066 c 0.680998,-0.11053 0.866667,-0.0475 0.866667,0.29423 0,0.23919 -0.172917,0.43489 -0.384261,0.43489 -0.479936,0 -0.568355,0.15614 -0.792798,1.4 -0.144712,0.80199 -0.09885,1 0.231643,1 0.226645,0 0.412083,0.0346 0.412083,0.077 0,0.10509 -0.888355,1.82976 -1.194595,2.31921 -0.136331,0.21789 -0.214123,0.78789 -0.172875,1.26667 0.0557,0.64652 -0.03318,0.8705 -0.345432,0.8705 -0.552526,0 -0.530414,0.15669 0.112902,0.8 0.676861,0.67686 0.719202,1.86504 0.06667,1.87075 -0.354318,0.003 -0.38175,0.0579 -0.113944,0.22773 0.246112,0.15604 0.298131,0.51464 0.172104,1.18641 -0.208533,1.11158 -0.727254,1.64799 -1.35915,1.40551 -0.369176,-0.14167 -0.386149,-0.10304 -0.104077,0.23683 0.371154,0.44721 0.135114,0.91072 -0.916742,1.80018 -0.307549,0.26006 -0.399677,0.46332 -0.211525,0.46666 0.183333,0.003 0.333333,0.12061 0.333333,0.26076 0,0.46705 -1.365165,2.27593 -1.85553,2.45862 -0.400397,0.14919 -0.459818,0.38967 -0.345939,1.4 0.08035,0.71285 0.02881,1.21989 -0.123988,1.21989 -0.143819,0 -0.642646,0.61315 -1.108505,1.36256 -0.659968,1.06167 -0.963214,1.33218 -1.373192,1.22496 -0.546075,-0.1428 -0.726582,0.19048 -0.259512,0.47914 0.474848,0.29348 0.283482,0.91002 -0.426931,1.3755 -0.514621,0.3372 -0.807069,0.38245 -1.133333,0.17538 -0.367814,-0.23344 -0.48451,-0.1214 -0.713472,0.68501 -0.217751,0.76694 -0.422266,0.98137 -0.999999,1.04849 -0.574817,0.0668 -0.726265,-0.0259 -0.726265,-0.44451 0,-0.51923 -0.01944,-0.51834 -1.064467,0.0489 -0.737643,0.40043 -1.065144,0.75649 -1.066667,1.15969 -0.003,0.79733 -1.420122,1.80039 -2.061828,1.45942 -0.410901,-0.21833 -0.47864,-0.12285 -0.510933,0.72019 -0.04528,1.18214 -0.771727,3.0255 -0.961001,2.43855 -0.07094,-0.22 -0.237843,-0.75883 -0.370891,-1.19741 -0.287712,-0.94842 -1.164213,-1.26624 -1.164213,-0.42214 0,0.45027 -0.16716,0.55288 -0.900683,0.55288 -0.495373,0 -1.050066,-0.18 -1.23265,-0.4 -0.491853,-0.59264 -0.8,-0.48671 -0.8,0.27504 0,0.86517 -0.701385,1.14568 -1.229566,0.49174 -0.288899,-0.35768 -0.443469,-0.40518 -0.542741,-0.16678 -0.185456,0.44537 -0.752728,0.42027 -1.71188,-0.0757 -0.711024,-0.36769 -0.930578,-0.36762 -2.17063,5.3e-4 -1.005293,0.29854 -1.430141,0.3279 -1.565906,0.10823 -0.102475,-0.16581 -0.311491,-0.2241 -0.464483,-0.12955 -0.152992,0.0945 -0.717795,-0.0377 -1.25512,-0.29396 -0.942934,-0.44965 -0.989998,-0.44803 -1.351646,0.0466 -0.206082,0.28193 -0.374695,0.72959 -0.374695,0.99489 0,0.49401 -0.451941,0.62771 -0.940712,0.27828 z"
       id="path828"
       inkscape:connector-curvature="0"
       sodipodi:nodetypes="cscccccscscssscccscccsccccccccsscsccccscccsccscscccsccccccscscsccccsscsccsssscscsssccccccsccsccccccccccccsccccsscssccsccccccccscsssccccccsccccccsscscsccccccscc" />
    <path
       style="fill:#000000;stroke-width:0.26666668"
       d="m 24.972085,295.26732 c -0.241314,-0.24131 -0.438752,-0.67018 -0.438752,-0.95303 0,-0.77585 -0.425885,-0.61748 -0.805759,0.29962 -0.243866,0.58874 -0.455688,0.7648 -0.765686,0.63641 -0.235705,-0.0976 -0.638555,-0.23788 -0.895221,-0.31167 C 21.81,294.86485 21.6,294.65846 21.6,294.48001 c 0,-0.614 0.312366,-0.63431 0.888889,-0.0578 L 23.066667,295 l 0.08089,-0.96862 c 0.05212,-0.62411 0.391391,-1.33546 0.953879,-2 0.911341,-1.07669 2.48478,-4.13744 3.229726,-6.28265 0.597712,-1.72122 1.410696,-2.72895 1.884403,-2.33581 0.198589,0.16481 0.486325,0.22225 0.639419,0.12763 0.15309,-0.0946 0.278346,-0.0449 0.278346,0.11038 0,0.15532 -0.12,0.2824 -0.266666,0.2824 -0.693443,0 -0.109395,1.09208 1.431224,2.67617 1.431128,1.47151 1.834101,2.10901 2.588474,4.09497 l 0.89347,2.35214 1.121498,-0.12641 c 0.769248,-0.0867 1.244331,-0.004 1.512563,0.26465 0.215085,0.21508 0.704861,0.40923 1.088395,0.43144 0.383533,0.0222 0.697418,0.19038 0.69752,0.37371 2.66e-4,0.51296 -0.915504,0.39551 -1.694608,-0.21733 -0.794707,-0.62512 -1.254678,-0.502 -1.049915,0.28102 0.188979,0.72265 -0.601605,0.99455 -1.232272,0.42381 -0.435667,-0.39428 -0.508093,-0.39789 -0.648365,-0.0324 -0.215059,0.56044 -0.472571,0.52077 -1.604104,-0.24711 C 32.436747,293.84579 32,293.65019 32,293.77338 c 0,0.12319 -0.55132,0.37833 -1.225157,0.567 -0.985859,0.27602 -1.265819,0.27723 -1.433334,0.006 -0.146922,-0.23773 -0.261698,-0.25023 -0.39008,-0.0425 -0.123696,0.20014 -0.51161,0.10457 -1.212213,-0.29864 -1.016645,-0.58511 -1.037787,-0.58621 -1.594166,-0.0827 -0.310123,0.28066 -0.510729,0.64874 -0.445793,0.81796 0.06494,0.16922 0.0266,0.45566 -0.08518,0.63653 -0.154621,0.25018 -0.308205,0.22389 -0.641994,-0.1099 z m 2.439595,-3.40832 -0.09007,-0.59233 -0.348006,0.62083 c -0.191405,0.34147 -0.270696,0.82147 -0.176205,1.06667 0.157888,0.40973 0.193363,0.40742 0.438075,-0.0285 0.146453,-0.26088 0.225744,-0.74088 0.176205,-1.06666 z m 2.010235,-2.92567 C 29.183176,287.67745 28.581125,286.6 28.118117,286.6 c -0.819418,0 -0.69989,0.79013 0.255888,1.69154 0.52763,0.49763 0.959328,1.0406 0.959328,1.20661 0,0.16602 0.057,0.30185 0.126667,0.30185 0.06967,0 0.05253,-0.39 -0.03809,-0.86667 z m 11.310925,5.14421 c -0.400112,-1.01859 -0.519757,-1.12191 -1.123651,-0.97034 -0.472605,0.11862 -0.675856,0.0617 -0.675856,-0.18927 0,-0.24957 0.251526,-0.32198 0.825739,-0.2377 0.624195,0.0916 0.893101,0.31442 1.101715,0.91285 0.367581,1.05445 0.773189,0.46494 0.683285,-0.99308 -0.06556,-1.06326 -0.06261,-1.06669 0.923755,-1.07534 1.115496,-0.01 1.447314,-0.25015 1.576258,-1.14179 0.06054,-0.41859 0.505928,-0.84557 1.384443,-1.3272 l 1.295197,-0.71006 0.5032,0.62142 0.503203,0.62143 0.239669,-0.62756 c 0.185192,-0.48492 0.116046,-0.76217 -0.304202,-1.21975 -0.458456,-0.49918 -0.488742,-0.65861 -0.192835,-1.01516 0.315091,-0.37966 0.415787,-0.35315 0.983264,0.25885 0.347725,0.37501 0.777371,0.67999 0.954768,0.67774 0.644053,-0.008 1.046368,-0.46239 0.878365,-0.99172 -0.246421,-0.7764 0.06357,-1.36663 0.638752,-1.21621 0.337643,0.0883 0.638998,-0.11048 0.954339,-0.62947 0.25348,-0.41718 0.685867,-1.08663 0.960861,-1.48765 0.424446,-0.61898 0.448888,-0.82042 0.161771,-1.33333 -0.186016,-0.33231 -0.346573,-0.63256 -0.356789,-0.66722 -0.01021,-0.0347 -0.958699,0.11686 -2.107739,0.33671 -1.88676,0.36099 -2.932768,0.35991 -1.97852,-0.002 1.171192,-0.44425 4.078936,-1.17005 4.254021,-1.06184 0.416718,0.25755 1.464024,-0.37612 1.921238,-1.16244 0.45725,-0.78638 0.455384,-0.8138 -0.06667,-0.9795 -0.747208,-0.23715 -0.670107,-0.63048 0.187504,-0.95655 2.008397,-0.76359 1.513912,-1.35593 -2.191528,-2.62519 C 51.19988,274.38369 49.64,273.8127 49.2,273.61718 l -0.8,-0.3555 1.004325,0.16627 c 0.552379,0.0915 2.112379,0.49046 3.466667,0.8867 1.354288,0.39622 2.942341,0.7125 3.529008,0.70284 0.941275,-0.0155 1.076032,-0.0981 1.146344,-0.70218 0.06015,-0.5168 -0.08692,-0.7605 -0.6,-0.99428 -0.902792,-0.41134 -0.858771,-0.77274 0.120323,-0.98778 1.013773,-0.22266 1.014282,-0.56954 0.0016,-1.14574 -0.880574,-0.50107 -1.028072,-0.977 -0.379875,-1.22573 0.650227,-0.2494 1.444941,-0.19176 1.444941,0.10489 0,0.14666 -0.33,0.27047 -0.733333,0.27511 l -0.733333,0.008 0.733333,0.54713 c 0.894192,0.66714 1.021517,1.83597 0.2,1.83597 -0.533152,0 -0.533152,1.8e-4 5.33e-4,0.53388 0.48087,0.48087 0.498958,0.61987 0.182171,1.4 -0.253571,0.62445 -0.549035,0.88944 -1.058907,0.9497 -0.632269,0.0747 -0.672762,0.14008 -0.382173,0.61684 0.280797,0.46069 0.225584,0.61966 -0.405699,1.16806 -0.443218,0.38503 -0.669498,0.79437 -0.575101,1.04036 0.08559,0.22306 -0.09558,0.75835 -0.402603,1.18953 C 54.651205,280.06288 54.4,280.54714 54.4,280.70783 54.4,280.86853 54.167083,281 53.882405,281 c -0.726042,0 -0.847992,0.32515 -0.483816,1.28996 0.26483,0.70161 0.246835,0.88864 -0.112802,1.17241 -0.235344,0.1857 -0.74243,0.84763 -1.126856,1.47096 -0.462611,0.75012 -0.887811,1.13334 -1.257472,1.13334 -0.390624,0 -0.509862,0.12024 -0.396656,0.4 0.08903,0.22 0.228122,0.56285 0.309104,0.76188 0.09271,0.22786 -0.158936,0.48871 -0.679448,0.70432 -0.768891,0.31848 -0.881726,0.28969 -1.613907,-0.41178 -0.798979,-0.76547 -1.113429,-0.65688 -0.395392,0.13655 0.320731,0.3544 0.33624,0.61408 0.08547,1.43116 -0.208104,0.67807 -0.426283,0.95217 -0.680304,0.8547 -0.205672,-0.0789 -0.496973,-0.1435 -0.647336,-0.1435 -0.150363,0 -0.204315,-0.18 -0.119891,-0.4 0.207667,-0.54118 -0.03202,-0.50622 -1.363101,0.1988 -0.814752,0.43154 -1.133333,0.76735 -1.133333,1.19459 0,0.74762 -1.110848,1.51316 -1.853611,1.27742 -0.474467,-0.15059 -0.547973,-0.057 -0.558416,0.71122 -0.0066,0.48655 -0.160973,1.23358 -0.343019,1.66006 l -0.330989,0.77542 z M 21.6,293.3605 c 0,-0.4707 -1.738679,-1.10434 -3.567727,-1.30022 -0.985889,-0.10558 -1.939367,-0.32733 -2.11884,-0.49279 -1.458269,-1.34436 -3.160202,-2.57006 -3.380007,-2.43422 -0.146717,0.0907 -0.266759,0.0449 -0.266759,-0.1018 0,-0.6852 0.637373,-0.4862 2.001533,0.62492 0.817238,0.66566 1.721218,1.21028 2.008844,1.21028 0.287626,0 0.522956,0.11264 0.522956,0.25032 0,0.13768 0.57,0.32498 1.266667,0.41621 2.404871,0.31493 4.301035,1.32132 3.672943,1.94941 -0.07678,0.0768 -0.13961,0.0218 -0.13961,-0.12211 z m -10.4,-3.29383 c -0.22,-0.14218 -0.34,-0.27034 -0.266667,-0.28481 0.868729,-0.17139 1.333334,-0.10308 1.333334,0.19604 0,0.4154 -0.497208,0.45678 -1.066667,0.0888 z m -1.7655272,-2.89679 c -1.44782,-1.5938 -1.5868941,-1.80839 -2.5296536,-3.90321 -0.3300317,-0.73334 -0.7621216,-1.43125 -0.9602,-1.55093 -0.3488688,-0.21078 -1.6779525,-2.15389 -1.6779525,-2.45316 0,-0.0814 0.2493072,-0.0146 0.5540157,0.14849 0.3047088,0.16307 0.4928013,0.45602 0.4179837,0.65099 -0.1657042,0.43182 0.6355611,1.20461 1.2489982,1.20461 0.2533656,0 0.445669,0.20963 0.445669,0.48583 0,1.2481 0.9446534,3.08668 2.4254888,4.72072 0.8659809,0.95557 1.5745109,1.85502 1.5745109,1.99876 0,0.35651 0.0371,0.38873 -1.4988602,-1.3021 z m 34.4321942,-1.56147 c -1.173334,-1.09915 -1.860318,-1.85986 -1.526632,-1.69046 0.776986,0.39443 3.969709,3.39156 3.793298,3.56091 -0.07333,0.0704 -1.093333,-0.77131 -2.266666,-1.87045 z m -12.933334,-1.95748 c 0,-0.15532 0.12,-0.20824 0.266667,-0.1176 0.146667,0.0907 0.266667,0.21773 0.266667,0.28241 0,0.0647 -0.12,0.11759 -0.266667,0.11759 -0.146667,0 -0.266667,-0.12708 -0.266667,-0.2824 z M 36,283.4 c 0,-0.14667 0.12,-0.26667 0.266667,-0.26667 0.146666,0 0.266666,0.12 0.266666,0.26667 0,0.14667 -0.12,0.26667 -0.266666,0.26667 C 36.12,283.66667 36,283.54667 36,283.4 Z m 1.333333,-0.26667 c 0,-0.14666 0.12,-0.26666 0.266667,-0.26666 0.146667,0 0.266667,0.12 0.266667,0.26666 0,0.14667 -0.12,0.26667 -0.266667,0.26667 -0.146667,0 -0.266667,-0.12 -0.266667,-0.26667 z m -7.066666,-0.53323 c 0.88,-0.10648 2.17,-0.28369 2.866666,-0.3938 0.781342,-0.12348 1.266667,-0.10065 1.266667,0.0596 0,0.31325 -2.245781,0.60903 -4.266667,0.56195 l -1.466666,-0.0342 z m 8,-10e-5 c 0.09065,-0.14667 0.217728,-0.26667 0.282405,-0.26667 0.06468,0 0.117595,0.12 0.117595,0.26667 0,0.14667 -0.127083,0.26667 -0.282406,0.26667 -0.155322,0 -0.20824,-0.12 -0.117594,-0.26667 z M 22.8,282.06667 C 22.890645,281.92 23.017727,281.8 23.082405,281.8 c 0.06468,0 0.117595,0.12 0.117595,0.26667 0,0.14666 -0.127082,0.26666 -0.282405,0.26666 -0.155322,0 -0.20824,-0.12 -0.117595,-0.26666 z M 21.733333,281.8 c -0.09064,-0.14667 -0.03773,-0.26667 0.117596,-0.26667 0.155322,0 0.282404,0.12 0.282404,0.26667 0,0.14667 -0.05292,0.26667 -0.117595,0.26667 -0.06468,0 -0.19176,-0.12 -0.282405,-0.26667 z m 7.166048,-0.80828 c 0.9536,-1.13329 1.230752,-2.37574 1.232464,-5.52505 8e-4,-1.54889 0.111347,-2.73334 0.255006,-2.73334 0.151744,0 0.214442,1.31137 0.156181,3.26667 -0.06788,2.27798 -0.03711,2.78241 0.101656,1.66667 l 0.198987,-1.6 0.04483,1.81212 c 0.03714,1.50132 0.150336,1.91763 0.659981,2.42727 0.338334,0.33833 0.788334,0.67645 1,0.75137 0.600582,0.21258 0.09362,0.54637 -0.529466,0.34861 -0.304979,-0.0968 -0.729219,-0.49776 -0.942755,-0.89102 -0.213533,-0.39326 -0.393048,-0.5812 -0.39892,-0.41765 -0.0059,0.16356 0.238032,0.61356 0.542011,1 L 31.772043,281.8 H 29.995651 28.219256 Z M 20.8,280.98426 c 0,-0.15532 0.12,-0.20824 0.266667,-0.11759 0.146666,0.0906 0.266666,0.21772 0.266666,0.2824 0,0.0647 -0.12,0.1176 -0.266666,0.1176 C 20.92,281.26667 20.8,281.13958 20.8,280.98426 Z m -0.427718,-1.41517 c -2.65734,-2.10126 -5.015773,-5.11863 -5.551377,-7.10242 -0.099,-0.36667 0.255672,0.13262 0.788152,1.10953 0.937067,1.71919 3.198198,4.14181 5.986473,6.41403 0.657542,0.53585 1.130544,1.03925 1.051115,1.11868 -0.07943,0.0794 -1.102891,-0.61349 -2.274363,-1.53982 z m 14.428059,0.98688 c 0.421792,-0.813 0.321342,-1.54537 -0.576432,-4.20268 -0.893202,-2.64379 -0.760381,-2.73753 0.406126,-0.28662 1.226784,2.57755 2.216565,3.8047 3.158978,3.91654 0.386755,0.0459 0.733446,0.23646 0.770422,0.42346 0.04577,0.23147 0.01973,0.24005 -0.08159,0.0269 -0.09632,-0.20266 -0.331432,-0.0874 -0.666371,0.32666 -0.333053,0.41173 -0.564387,0.52575 -0.648947,0.31983 -0.09328,-0.22715 -0.324677,-0.24649 -0.797656,-0.0667 -0.36644,0.13932 -0.951328,0.25331 -1.299749,0.25331 -0.600645,0 -0.614373,-0.0368 -0.264779,-0.7107 z m 7.066326,0.17736 c 0,-0.14666 0.127082,-0.26666 0.282405,-0.26666 0.155323,0 0.20824,0.12 0.117595,0.26666 C 42.176021,280.88 42.048939,281 41.984261,281 c -0.06468,0 -0.117594,-0.12 -0.117594,-0.26667 z M 39.2,280.20737 c 0,-0.13341 0.09826,-0.30329 0.218365,-0.37752 0.383907,-0.23727 0.337686,-2.6688 -0.0652,-3.42985 -0.463501,-0.87557 -0.419747,-0.88801 0.707053,-0.201 0.480211,0.29279 1.203112,0.53279 1.606446,0.53334 1.046304,10e-4 0.913266,0.37948 -0.537734,1.52813 -0.760488,0.60201 -1.237258,1.18018 -1.186909,1.43931 0.04629,0.23821 -0.101733,0.50444 -0.328933,0.59163 -0.2272,0.0872 -0.413091,0.0494 -0.413091,-0.084 z m 3.466667,0.0241 c 0,-0.14666 0.12,-0.34082 0.266666,-0.43147 C 43.08,279.70935 43.2,279.75519 43.2,279.90186 c 0,0.14667 -0.12,0.34083 -0.266667,0.43147 -0.146666,0.0906 -0.266666,0.0448 -0.266666,-0.10186 z M 28,279.30932 c 0,-1.07888 0.84888,-4.48897 1.43784,-5.77603 0.419949,-0.91772 0.425443,-0.88882 0.329469,1.73338 -0.06294,1.71963 -0.262317,3.06915 -0.56141,3.8 C 28.640083,280.44926 28,280.57806 28,279.30932 Z m 5.791064,0.62401 c -0.371611,-0.83917 -1.837587,-6.44236 -1.717064,-6.56288 0.260784,-0.26079 2.0998,5.43682 1.998213,6.19083 -0.07097,0.52675 -0.160296,0.64496 -0.281149,0.37205 z m 9.340381,-1.71514 c 1.017936,-1.09 2.19979,-2.64972 2.626342,-3.46604 0.426549,-0.81632 0.914456,-1.4845 1.084237,-1.48485 0.169779,-2.7e-4 0.465645,-0.61304 0.657477,-1.36153 0.191835,-0.7485 0.392744,-1.22903 0.44647,-1.06786 0.132933,0.3988 -0.712323,2.88996 -1.119358,3.29899 -0.180485,0.18137 -0.667056,0.90889 -1.081269,1.61671 -0.880773,1.50508 -3.600963,4.44639 -4.112123,4.44639 -0.193914,0 0.480286,-0.89182 1.498224,-1.98181 z m -17.202911,0.91514 c 0,-0.51333 0.05488,-0.72333 0.121953,-0.46666 0.06707,0.25666 0.06707,0.67666 0,0.93333 -0.06707,0.25667 -0.121953,0.0467 -0.121953,-0.46667 z m 11.076637,-0.0185 C 36.547965,278.84845 35.2,276.76471 35.2,276.32436 c 0,-0.12583 0.351947,0.32618 0.782101,1.00447 0.788616,1.24352 1.494974,1.8045 2.272115,1.8045 0.323973,0 0.381227,-0.16488 0.245307,-0.70644 -0.124782,-0.49717 -0.08679,-0.6505 0.128253,-0.51759 0.168056,0.10386 0.305557,0.48176 0.305557,0.83977 0,0.53429 -0.131402,0.64948 -0.733333,0.64282 -0.403333,-0.004 -0.941005,-0.12912 -1.194829,-0.27702 z m 4.061496,-0.0991 c 0,-0.22866 0.12,-0.41574 0.266666,-0.41574 0.146667,0 0.266667,0.11292 0.266667,0.25093 0,0.13801 -0.12,0.32509 -0.266667,0.41574 -0.146666,0.0906 -0.266666,-0.0223 -0.266666,-0.25093 z m -37.0245617,-0.6824 c 0,-0.36666 0.060526,-0.51666 0.134503,-0.33333 0.073977,0.18333 0.073977,0.48333 0,0.66667 -0.073977,0.18333 -0.134503,0.0333 -0.134503,-0.33334 z m 20.2091977,-0.41784 c 0.606513,-0.54795 1.537294,-1.89728 2.195618,-3.18293 0.628527,-1.22746 1.189002,-2.18553 1.2455,-2.12903 0.0565,0.0565 -0.404834,1.09882 -1.025186,2.31626 -1.145675,2.2484 -2.488452,3.94688 -3.120314,3.94688 -0.191652,0 0.12532,-0.42803 0.704382,-0.95118 z M 44.533333,278.6 c 0,-0.14667 0.127083,-0.26667 0.282406,-0.26667 0.155322,0 0.20824,0.12 0.117594,0.26667 -0.09064,0.14667 -0.217728,0.26667 -0.282405,0.26667 -0.06468,0 -0.117595,-0.12 -0.117595,-0.26667 z m -2.4,-0.51759 c 0,-0.13802 0.12,-0.3251 0.266667,-0.41574 0.146667,-0.0906 0.266667,0.0223 0.266667,0.25092 0,0.22866 -0.12,0.41574 -0.266667,0.41574 -0.146667,0 -0.266667,-0.11291 -0.266667,-0.25092 z m -21.155555,-0.19352 c -0.451059,-0.45106 -0.128559,-1.94348 0.653163,-3.02262 0.646621,-0.89263 0.720561,-1.10507 0.333333,-0.95769 -0.285165,0.10853 -0.04757,-0.27269 0.556512,-0.89293 1.221965,-1.25465 1.460019,-1.36639 0.815556,-0.38282 -0.520744,0.79476 -0.485832,0.77825 1.944348,-0.91952 0.92438,-0.64578 1.739905,-1.11494 1.812278,-1.04257 0.07237,0.0724 -0.623939,0.67465 -1.547358,1.3384 -2.067079,1.48579 -3.921325,3.30685 -4.256634,4.18045 -0.138538,0.36094 -0.182946,0.93094 -0.09869,1.26667 0.157246,0.62652 0.09931,0.74445 -0.212513,0.43263 z m 5.161412,-0.27153 c -0.01063,-0.57361 0.541783,-1.79255 1.639351,-3.61736 1.382032,-2.29775 1.638662,-2.34474 0.364758,-0.0668 -0.533099,0.95327 -1.20079,2.24327 -1.483761,2.86666 -0.28297,0.6234 -0.517127,0.99126 -0.520348,0.81748 z M 4,277.26667 c 0,-0.14667 -0.135,-0.23667 -0.3,-0.2 -0.165,0.0367 -0.3527075,-0.0765 -0.417128,-0.25139 -0.069326,-0.18825 0.107524,-0.30113 0.4333333,-0.27658 0.335368,0.0253 0.5504614,0.22769 0.5504614,0.51805 0,0.26212 -0.06,0.47658 -0.1333334,0.47658 C 4.06,277.53333 4,277.41333 4,277.26667 Z M 18.533333,276.2 17.491761,275.13333 h 0.996018 c 0.54781,0 1.394947,-0.16668 1.882527,-0.3704 l 0.88651,-0.37041 -0.695075,1.43203 c -0.382291,0.78762 -0.760721,1.43431 -0.840955,1.43708 -0.08023,0.003 -0.614588,-0.47496 -1.187453,-1.06163 z M 16,276.45093 c 0,-0.15532 0.12,-0.20824 0.266667,-0.1176 0.146666,0.0906 0.266666,0.21773 0.266666,0.28241 0,0.0647 -0.12,0.11759 -0.266666,0.11759 C 16.12,276.73333 16,276.60625 16,276.45093 Z m 24.132528,-1.10466 c -0.714899,-0.48378 -1.353637,-1.0596 -1.419419,-1.2796 -0.07848,-0.26248 0.100515,-0.19809 0.520616,0.18727 0.891878,0.81812 2.432288,1.41527 3.159958,1.22498 0.449373,-0.11751 0.578525,-0.0609 0.48812,0.21398 -0.232915,0.70816 -1.409859,0.55977 -2.749275,-0.34663 z m -36.6448088,0.16484 c 0.012795,-0.31065 0.075984,-0.37384 0.1611112,-0.16111 0.077032,0.1925 0.067558,0.4225 -0.021053,0.51111 -0.088611,0.0886 -0.1516376,-0.0689 -0.1400582,-0.35 z m 40.8332598,-0.099 c 0.179024,-0.28667 0.362866,-0.48384 0.408536,-0.43817 0.158072,0.15807 -0.254232,0.95937 -0.493638,0.95937 -0.132218,0 -0.09392,-0.23454 0.0851,-0.5212 z M 30.975437,274.6 c 0,-0.36667 0.06053,-0.51667 0.134504,-0.33333 0.07398,0.18333 0.07398,0.48333 0,0.66666 -0.07398,0.18334 -0.134504,0.0333 -0.134504,-0.33333 z m -13.90877,-0.0157 c 0,-0.15532 0.12,-0.20824 0.266666,-0.11759 0.146667,0.0906 0.266667,0.21772 0.266667,0.2824 0,0.0647 -0.12,0.1176 -0.266667,0.1176 -0.146666,0 -0.266666,-0.12709 -0.266666,-0.28241 z m 0.707996,-0.20526 c -0.581228,-0.64225 -0.601593,-1.31069 -0.02228,-0.73138 0.230476,0.23048 0.710476,0.41905 1.066666,0.41905 0.397884,0 0.64762,0.15424 0.64762,0.4 0,0.56676 -1.153854,0.50698 -1.692004,-0.0877 z m 25.95867,-0.0562 c 0,-0.46411 -1.891168,-2.6561 -2.291586,-2.6561 -0.07519,0 -0.578198,-0.3 -1.117798,-0.66667 -1.194344,-0.81158 -0.92257,-0.84198 1.009384,-0.11293 1.624038,0.61286 2.198664,1.04016 1.662758,1.23646 -0.235859,0.0864 -0.135651,0.3631 0.333333,0.92046 0.586067,0.6965 0.918013,1.82268 0.537243,1.82268 -0.07333,0 -0.133334,-0.24476 -0.133334,-0.5439 z M 3.3036424,273.91455 c 0.089663,-0.23366 0.1630243,-0.4821 0.1630243,-0.5521 0,-0.07 0.12,-0.0531 0.2666666,0.0375 0.3957835,0.24461 0.3235491,0.58778 -0.1630242,0.77449 -0.314499,0.12069 -0.3859872,0.051 -0.2666667,-0.25994 z M 3.6,270.87337 c 0,-1.49681 0.083966,-2.025 0.2941739,-1.85055 0.1793077,0.14882 0.2429528,0.79075 0.1629954,1.644 C 3.8393256,272.9915 3.6,273.09963 3.6,270.87337 Z m 13.733333,1.81359 c 0,-0.86953 1.797864,-2.03988 4.427717,-2.8823 1.417204,-0.45397 2.710733,-0.78061 2.874509,-0.72588 0.163776,0.0547 -0.542226,0.37619 -1.568892,0.71433 -2.528121,0.83268 -4.806011,2.00162 -5.314101,2.72702 -0.317638,0.45349 -0.419233,0.49392 -0.419233,0.16683 z m 10.421054,-0.66515 c -0.01157,-0.17134 -0.09012,-0.53134 -0.174523,-0.8 -0.14588,-0.46432 -0.138355,-0.46491 0.152208,-0.0118 0.16812,0.26219 0.246656,0.62219 0.17452,0.8 -0.09466,0.23333 -0.137011,0.23661 -0.152205,0.0118 z M 29.866667,271.4 c 0,-0.14667 0.127082,-0.26667 0.282405,-0.26667 0.155323,0 0.20824,0.12 0.117595,0.26667 -0.09065,0.14667 -0.217728,0.26667 -0.282406,0.26667 -0.06468,0 -0.117594,-0.12 -0.117594,-0.26667 z m 1.466666,0 c 0.09065,-0.14667 0.217728,-0.26667 0.282406,-0.26667 0.06468,0 0.117594,0.12 0.117594,0.26667 0,0.14667 -0.127082,0.26667 -0.282405,0.26667 -0.155323,0 -0.20824,-0.12 -0.117595,-0.26667 z m -6.30268,-0.45342 c 0.660246,-1.20205 0.984398,-1.47708 1.296991,-1.10043 0.234942,0.28309 0.0989,0.49253 -0.630504,0.97066 -0.779203,0.51078 -0.887325,0.53184 -0.666487,0.12977 z m 4.315336,-0.0877 c 0.227016,-0.14031 0.166368,-0.25073 -0.201909,-0.36761 -0.289515,-0.0919 -0.815371,-0.48577 -1.168568,-0.87529 -0.630461,-0.6953 -0.623093,-0.694 0.403731,0.0712 1.439757,1.073 3.128125,1.08519 4.508181,0.0326 0.538584,-0.41079 0.979243,-0.6225 0.979243,-0.47045 0,0.57397 -2.008251,1.56351 -3.422576,1.68643 -0.782419,0.068 -1.276563,0.0334 -1.098102,-0.0769 z m -15.191603,-0.4144 c 0.01279,-0.31066 0.07598,-0.37384 0.161111,-0.16112 0.07703,0.1925 0.06756,0.4225 -0.02105,0.51112 -0.08861,0.0886 -0.151638,-0.0689 -0.140059,-0.35 z m 3.712281,-0.22323 c 0,-0.0673 1.032369,-0.43717 2.294155,-0.82204 1.261785,-0.38487 2.251081,-0.74283 2.198436,-0.79548 -0.05265,-0.0526 -0.859311,0.0807 -1.792591,0.2963 -0.933281,0.21561 -1.750242,0.33865 -1.815471,0.27342 -0.06523,-0.0652 0.699067,-0.38441 1.698436,-0.7093 0.999369,-0.32488 2.207035,-0.81317 2.683701,-1.08508 C 23.834062,266.97931 24,266.95789 24,267.26714 c 0,0.21037 -0.33,0.56152 -0.733333,0.78033 -0.403334,0.21882 -0.613334,0.4022 -0.466667,0.40752 0.146667,0.005 0.656667,-0.2281 1.133333,-0.51873 0.973794,-0.59374 1.196946,-0.26661 0.266667,0.39091 -0.798102,0.5641 -6.333333,2.21946 -6.333333,1.89405 z M 34.4,270.09932 c 0,-0.12871 0.167091,-0.37269 0.371309,-0.54218 0.204222,-0.16948 0.520374,-0.66803 0.702563,-1.10787 0.182187,-0.43984 0.389677,-0.74128 0.461088,-0.66987 0.136211,0.13622 -1.201301,2.55393 -1.412867,2.55393 -0.06715,0 -0.122093,-0.1053 -0.122093,-0.23401 z M 48.042104,269.8 c 0,-0.36667 0.06053,-0.51667 0.134504,-0.33333 0.07398,0.18333 0.07398,0.48333 0,0.66666 -0.07398,0.18334 -0.134504,0.0333 -0.134504,-0.33333 z m -33.224959,-0.1885 c -0.144716,-0.38005 -0.114086,-0.41068 0.149278,-0.14928 0.182245,0.18089 0.264179,0.39607 0.182076,0.47817 -0.0821,0.0821 -0.231213,-0.0659 -0.331354,-0.32889 z m 16.116188,0.22473 c 0,-0.12674 -0.530266,-0.43295 -1.178368,-0.68046 -1.198858,-0.45785 -1.792002,-1.09316 -2.137173,-2.2891 -0.166733,-0.5777 -0.121528,-0.55516 0.338717,0.16887 0.292123,0.45955 0.808112,1.02955 1.146646,1.26667 0.788989,0.55263 2.601704,0.55473 3.388088,0.004 0.335453,-0.23496 0.683392,-0.35372 0.773202,-0.26391 0.23723,0.23723 -0.746853,0.93797 -1.578125,1.12375 -0.464888,0.1039 -0.664107,0.28869 -0.571472,0.5301 0.07822,0.20383 0.06937,0.3706 -0.01965,0.3706 -0.08903,0 -0.161864,-0.1037 -0.161864,-0.23044 z M 31.466667,269.8 c 0,-0.14667 0.12,-0.26667 0.266666,-0.26667 0.146667,0 0.266667,0.12 0.266667,0.26667 0,0.14667 -0.12,0.26667 -0.266667,0.26667 -0.146666,0 -0.266666,-0.12 -0.266666,-0.26667 z M 15.64133,269.31234 C 15.398598,269.04412 15.2,268.5072 15.2,268.11918 c 0,-0.78968 0.816682,-1.33399 2.4,-1.59956 0.830323,-0.13928 0.859755,-0.12579 0.266667,0.12221 -2.257062,0.94378 -2.4,1.03667 -2.4,1.55957 0,0.32081 0.273057,0.66778 0.666666,0.84712 C 16.5,269.21559 16.8,269.45301 16.8,269.57614 c 0,0.39805 -0.704949,0.23755 -1.15867,-0.2638 z m 29.139806,0.0878 c -0.227755,-0.22775 -1.366683,-0.59432 -2.530952,-0.81459 -4.108437,-0.77729 -4.462008,-0.91126 -2.075987,-0.78656 3.452358,0.18043 5.411475,0.84395 5.115299,1.73248 -0.05702,0.17107 -0.257845,0.11919 -0.50836,-0.13133 z m -18.267097,-0.7922 c -0.254049,-0.38773 -0.498583,-1.32814 -0.543408,-2.0898 l -0.0815,-1.38485 0.23572,1.28339 c 0.129646,0.70586 0.43418,1.58627 0.676741,1.95647 0.242563,0.3702 0.381024,0.73308 0.307691,0.80642 -0.07333,0.0733 -0.341195,-0.1839 -0.595244,-0.57163 z M 57.4,268.85169 c -0.448365,-0.48761 -0.421091,-0.91836 0.05815,-0.91836 0.215318,0 0.562056,-0.32554 0.770531,-0.72343 0.350139,-0.66827 0.335533,-0.74513 -0.191483,-1.00788 -0.747922,-0.37288 -0.730733,-1.04593 0.02947,-1.1539 0.632938,-0.0899 0.834976,0.34595 0.266666,0.57527 -0.183333,0.074 -0.06333,0.14398 0.266667,0.15556 0.761549,0.0267 0.754645,0.32001 -0.03706,1.57415 -0.350384,0.55505 -0.680384,1.20085 -0.733334,1.43513 -0.08066,0.35687 -0.150341,0.36716 -0.429605,0.0635 z m -10.148013,-1.31836 c 0.0054,-0.44 0.0652,-0.58771 0.13281,-0.32826 0.06761,0.25946 0.06317,0.61946 -0.0099,0.8 -0.07305,0.18055 -0.128365,-0.0317 -0.122931,-0.47174 z m -14.718654,-0.15086 c 0,-0.15631 0.124651,-0.51711 0.277003,-0.80178 0.223675,-0.41794 0.144803,-0.64979 -0.40968,-1.20428 -0.591587,-0.59158 -0.833072,-0.66195 -1.743672,-0.50811 C 29.719712,265.02665 29.6,264.98677 29.6,264.51619 c 0,-0.35135 0.273715,-0.6261 0.809979,-0.81304 1.807624,-0.63014 3.20812,0.8953 2.803266,3.05337 -0.15493,0.82584 -0.679912,1.30916 -0.679912,0.62595 z m -18.11228,-0.40469 c 0.01279,-0.31065 0.07598,-0.37384 0.161111,-0.16111 0.07703,0.1925 0.06756,0.4225 -0.02105,0.51111 -0.08861,0.0886 -0.151637,-0.0689 -0.140058,-0.35 z m 25.46144,0.12237 c -1.83857,-0.43089 -1.424677,-0.56891 1.184174,-0.3949 1.393333,0.0929 2.983333,0.0599 3.533333,-0.0734 1.212304,-0.29383 1.333669,0.0663 0.160208,0.47538 -0.988741,0.34467 -3.391643,0.34118 -4.877715,-0.007 z m -15.615826,-0.23348 c -0.22,-0.14218 -0.665778,-0.26034 -0.990618,-0.26259 -0.32484,-0.002 -0.71484,-0.23619 -0.866667,-0.51988 -0.393385,-0.73505 -0.3457,-0.87558 0.234607,-0.6914 0.865918,0.27483 1.889344,-0.12212 1.889344,-0.73282 0,-0.30188 -0.07832,-0.47055 -0.174051,-0.37482 -0.09573,0.0957 -0.831723,-0.20223 -1.635542,-0.66213 -0.803819,-0.45989 -2.315496,-1.11285 -3.359282,-1.451 -1.043785,-0.33816 -1.637606,-0.6202 -1.319601,-0.62677 0.318004,-0.007 0.78769,-0.0923 1.043745,-0.19058 0.259168,-0.0994 0.398343,-0.0699 0.313941,0.0667 -0.08339,0.13492 0.166927,0.2539 0.556255,0.26439 0.389328,0.0105 0.947869,0.11326 1.241202,0.22837 0.293333,0.11512 0.113333,-0.0554 -0.4,-0.37896 -1.024389,-0.64565 -2.666667,-2.13537 -2.666667,-2.41895 0,-0.0985 0.398883,0.19702 0.886406,0.65681 0.487524,0.4598 1.657524,1.24266 2.6,1.73969 0.942477,0.49704 2.038718,1.27501 2.43609,1.72883 0.912194,1.04178 0.981464,2.22121 0.14855,2.52932 l -0.59562,0.22034 0.59562,0.18904 c 0.327592,0.10398 0.595621,0.36096 0.595621,0.57107 0,0.44905 -0.01273,0.45181 -0.533333,0.11537 z m 0,-2.76735 c 0,-0.0554 -0.21,-0.26538 -0.466667,-0.46667 -0.422948,-0.3317 -0.43238,-0.32226 -0.100681,0.10068 0.348365,0.4442 0.567348,0.58546 0.567348,0.36599 z m -1.450968,-1.1078 c -0.284699,-0.21534 -0.644699,-0.38727 -0.8,-0.38207 -0.155301,0.005 0.01763,0.18094 0.384301,0.39055 0.863801,0.49379 1.074093,0.4895 0.415699,-0.008 z M 2.9853197,265.4 c 0.00543,-0.44 0.0652,-0.58772 0.1328112,-0.32826 0.067611,0.25946 0.063165,0.61946 -0.00988,0.8 C 3.0352037,266.05228 2.9798851,265.84 2.9853197,265.4 Z m 24.7690673,-0.6 c -0.03033,-0.48029 0.964037,-1.40017 1.51228,-1.399 0.316141,6.6e-4 0.19664,0.16565 -0.370488,0.51146 -0.460438,0.28076 -0.900963,0.67031 -0.97895,0.86567 -0.104,0.26053 -0.147402,0.26636 -0.162842,0.0219 z m 6.906349,0.0444 c -0.0033,-0.1344 -0.242376,-0.5444 -0.531371,-0.91107 -0.450768,-0.57192 -0.567192,-0.60982 -0.819224,-0.26666 -0.249792,0.3401 -0.271538,0.33072 -0.145226,-0.0626 0.201208,-0.62655 -0.847611,-1.22489 -1.223984,-0.69827 -0.19591,0.27412 -0.221822,0.24868 -0.10779,-0.1058 0.173064,-0.53799 -0.509162,-0.66377 -0.7232,-0.13333 -0.107602,0.26666 -0.138712,0.26666 -0.155554,0 -0.02979,-0.47169 -1.339515,-0.41571 -1.524032,0.0651 -0.0841,0.21916 -0.261152,0.33157 -0.393451,0.24981 -0.132299,-0.0818 -0.629725,0.12161 -1.105389,0.45194 -0.82791,0.57496 -0.84388,0.57649 -0.373939,0.0357 1.267661,-1.45865 3.969776,-1.85213 5.511803,-0.80263 1.027602,0.69938 2.042501,1.97701 1.779429,2.24008 -0.100179,0.10018 -0.184811,0.0721 -0.188072,-0.0623 z m 6.423125,-0.84225 c 1.981934,-0.66941 3.035136,-0.89682 3.552278,-0.76702 1.442325,0.362 0.5748,0.82776 -1.8574,0.99721 -1.308307,0.0911 -2.71655,0.30115 -3.129432,0.46667 -0.41288,0.16552 -0.89288,0.29052 -1.066667,0.2778 -0.173784,-0.0127 0.951765,-0.45133 2.501221,-0.97466 z M 26.4,264.01043 c 0,-0.15315 0.21,-0.44315 0.466667,-0.64444 0.431669,-0.33854 0.437328,-0.32599 0.07546,0.16734 -0.215165,0.29334 -0.425165,0.58334 -0.466667,0.64445 -0.0415,0.0611 -0.07546,-0.0142 -0.07546,-0.16735 z m 10.933333,-0.0514 c 0.22,-0.15629 0.58871,-0.286 0.819355,-0.28824 0.230645,-0.002 1.520645,-0.54009 2.866667,-1.19522 1.346021,-0.65512 2.447312,-1.12995 2.447312,-1.05517 0,0.2231 -4.867478,2.4797 -5.733334,2.65802 -0.60904,0.12543 -0.70452,0.0969 -0.4,-0.11939 z m -21.284444,-0.3501 c -0.444801,-0.4448 -0.391904,-1.42778 0.103492,-1.92318 0.584393,-0.58439 0.827639,-0.52662 0.288949,0.0686 -0.519491,0.57403 -0.565007,1.14866 -0.125775,1.58789 0.173556,0.17356 0.255556,0.37556 0.182223,0.44889 -0.07333,0.0733 -0.275333,-0.009 -0.448889,-0.18222 z m 42.62186,0.12444 C 58.668403,263.54165 58.326712,263.4 57.866667,263.4 c -0.93416,0 -1.006886,-0.23766 -0.266667,-0.87146 0.468424,-0.40108 0.533333,-0.40571 0.533333,-0.0381 0,0.32331 0.176307,0.37986 0.774614,0.24845 0.86937,-0.19095 1.408896,0.29361 0.642288,0.57686 -0.265963,0.0983 -0.571731,0.30741 -0.679486,0.46478 -0.13169,0.19232 -0.197253,0.17684 -0.2,-0.0472 z M 1.6008283,262.95438 c -0.80621118,-0.21844 -1.51246617,-0.4438 -1.56945561,-0.50079 -0.30658392,-0.30658 0.90778048,-1.46262 1.95755211,-1.86353 1.2713253,-0.48553 1.3944981,-0.6333 0.9218312,-1.10597 -0.5307933,-0.53079 -0.1544781,-1.53007 0.7346315,-1.95076 0.4649632,-0.22 1.0330216,-0.79 1.2623522,-1.26666 0.2414198,-0.5018 0.6188086,-0.86667 0.8963952,-0.86667 0.3435718,0 0.5815992,-0.35894 0.8399734,-1.26667 0.1982984,-0.69666 0.5833048,-1.44666 0.8555693,-1.66666 0.4255203,-0.34384 0.4559981,-0.54113 0.2170643,-1.40511 -0.2255998,-0.81576 -0.2003688,-1.0827 0.1339354,-1.417 0.226544,-0.22654 0.5325726,-0.33732 0.6800632,-0.24616 0.1474907,0.0911 0.6340851,-0.0504 1.0813211,-0.31461 0.6609774,-0.39045 0.7843284,-0.60543 0.6591134,-1.14873 -0.11701,-0.50771 -0.08897,-0.57223 0.116641,-0.26839 0.148876,0.22 0.272521,0.66723 0.274767,0.99385 0.0051,0.74272 0.872716,1.3263 2.313723,1.5563 1.103421,0.17611 1.110146,0.18417 1.2,1.43891 l 0.09036,1.26181 -1.733334,-0.93029 c -0.953333,-0.51166 -1.986618,-1.08492 -2.296189,-1.27391 -0.5459632,-0.33331 -0.5622408,-0.30109 -0.5423685,1.07371 0.0264,1.82628 -0.993867,3.54884 -3.0179928,5.09541 -1.6992048,1.2983 -2.9924931,1.88897 -2.7495,1.25574 0.1279714,-0.33349 0.057894,-0.34903 -0.4201814,-0.0932 -0.718824,0.3847 -0.7358853,0.98254 -0.040435,1.41686 C 3.76,259.64508 4,259.89111 4,260.00863 c 0,0.11752 -0.7879731,0.56722 -1.7510511,0.99932 -0.9630781,0.4321 -1.68028111,0.90015 -1.59378442,1.04011 0.0864967,0.13995 0.69446972,0.33502 1.35105112,0.43348 C 2.7600485,262.59458 3.2,262.79681 3.2,263.03028 c 0,0.20335 -0.03,0.35882 -0.066667,0.34549 -0.036667,-0.0133 -0.7262939,-0.20295 -1.5325047,-0.42139 z m 22.8548647,0.0124 c -0.399116,-0.39911 -0.160976,-0.63659 0.47764,-0.47631 1.425891,0.35788 0.342486,-1.08999 -2.44338,-3.26536 -1.222807,-0.95483 -2.223286,-1.79378 -2.223286,-1.86433 0,-0.3297 2.342359,1.24394 3.756605,2.52376 0.8672,0.78477 1.58072,1.32679 1.5856,1.20448 0.0049,-0.1223 0.24788,0.0646 0.540001,0.4154 0.292121,0.35078 0.466889,0.70202 0.388373,0.78054 -0.07852,0.0785 -0.297001,-0.0682 -0.485521,-0.32601 -0.308504,-0.4219 -0.341546,-0.3933 -0.330578,0.28614 0.0091,0.56174 -0.127079,0.77483 -0.532121,0.83281 -0.299368,0.0428 -0.629368,-0.007 -0.733333,-0.11112 z m 13.152608,-3.23347 c 1.229931,-1.28333 2.350638,-2.45333 2.490459,-2.6 0.139821,-0.14666 -0.02632,0.14153 -0.369219,0.64043 -0.886146,1.28934 -3.736613,4.29291 -4.074085,4.29291 -0.155867,0 0.722915,-1.05 1.952845,-2.33334 z m -12.799742,-0.22748 c -2.035334,-2.14268 -2.945333,-3.72023 -2.906818,-5.03918 0.01919,-0.65704 0.06379,-0.59468 0.249573,0.34896 0.2681,1.36172 1.517372,3.14146 3.563431,5.07654 0.81689,0.77258 1.485255,1.4579 1.485255,1.52293 0,0.4276 -0.710417,-0.13957 -2.391441,-1.90925 z m 3.719425,1.35437 c -0.185525,-0.22354 -0.269941,-0.47382 -0.187589,-0.55617 0.08235,-0.0824 0.283672,0.10055 0.447381,0.40644 0.349293,0.65266 0.219627,0.72739 -0.259792,0.14973 z m -5.194651,-1.93576 C 22.16,257.81506 21.59229,257.17803 22.071755,257.5088 c 1.234584,0.85172 3.687446,3.14791 3.528245,3.30289 -0.07333,0.0714 -1.093333,-0.77787 -2.266667,-1.88725 z m 33.733334,1.57625 c 0,-0.1408 0.360205,-0.41545 0.800456,-0.61032 1.061317,-0.46979 0.867602,-0.90585 -0.355598,-0.80047 -1.23532,0.10643 -1.567557,-0.51205 -0.745261,-1.38734 0.771803,-0.82155 0.718387,-0.96925 -0.350525,-0.96925 -0.960614,0 -1.282707,-0.28285 -1.41487,-1.24248 -0.05826,-0.42301 0.116862,-0.64741 0.659912,-0.84561 0.708264,-0.2585 0.692419,-0.27068 -0.378376,-0.29085 -0.614677,-0.0116 -1.186066,-0.13184 -1.269752,-0.26725 -0.08369,-0.13541 0.07691,-0.64541 0.35688,-1.13333 0.279971,-0.48793 0.597011,-1.18098 0.704534,-1.54012 l 0.195498,-0.65297 -0.855242,0.71964 c -1.445526,1.21633 -2.200568,0.73686 -1.08099,-0.68646 0.7656,-0.9733 0.688147,-1.33695 -0.24128,-1.13281 -0.429925,0.0944 -0.84904,0.0497 -0.941872,-0.1005 -0.09199,-0.14885 -0.36425,-0.19504 -0.605016,-0.10265 -0.329181,0.12632 -0.39528,0.0573 -0.266496,-0.27831 0.212619,-0.55408 0.09836,-0.55532 -1.047904,-0.0114 -0.504077,0.2392 -0.973666,0.37775 -1.043536,0.30788 -0.06987,-0.0699 0.119408,-0.68415 0.420614,-1.36508 0.447053,-1.01064 0.490181,-1.34541 0.2348,-1.8226 -0.263422,-0.4922 -0.360654,-0.5243 -0.615438,-0.20317 -0.166424,0.20977 -0.570629,0.61 -0.898232,0.88939 -0.590018,0.50321 -0.59564,0.50243 -0.59564,-0.0824 0,-0.32472 0.102558,-0.52702 0.227904,-0.44955 0.125347,0.0775 0.506264,-0.15545 0.846483,-0.5176 0.340219,-0.36214 0.693557,-0.65844 0.785195,-0.65844 0.09163,0 0.316557,0.41466 0.499824,0.92148 0.279405,0.77268 0.266525,1.05044 -0.07976,1.72009 -0.526747,1.01862 -0.522765,1.24818 0.01392,0.80277 0.234797,-0.19487 0.57996,-0.37676 0.767029,-0.40422 0.18707,-0.0275 0.604382,-0.13379 0.927363,-0.2363 0.503611,-0.15984 0.574763,-0.0974 0.49964,0.43823 -0.08002,0.5706 -0.0011,0.61785 0.9124,0.5464 0.890763,-0.0697 1,-0.0106 1,0.54067 0,0.34038 -0.19224,0.89333 -0.4272,1.22879 -0.23496,0.33545 -0.355696,0.68141 -0.268301,0.76881 0.217325,0.21732 1.244525,-0.73798 1.49825,-1.39339 0.190291,-0.49155 0.22096,-0.47774 0.391486,0.1763 0.124392,0.4771 8e-4,1.12611 -0.37719,1.98061 -0.661181,1.4947 -0.479613,1.72294 1.135171,1.42697 0.612947,-0.11235 1.159275,-0.15985 1.214061,-0.10557 0.27183,0.26932 -0.324941,1.00274 -1.033552,1.27021 -0.492578,0.18593 -0.799386,0.49171 -0.799386,0.79671 0,0.39778 0.168829,0.47793 0.859845,0.4082 0.729856,-0.0736 0.89816,0.022 1.113283,0.63274 0.213672,0.60662 0.151978,0.80824 -0.393179,1.28498 l -0.646619,0.5655 1.134579,-0.12644 c 1.014469,-0.11305 1.15101,-0.061 1.289776,0.49192 0.10297,0.41027 -0.01347,0.78316 -0.346003,1.10812 -0.560787,0.54801 -1.411685,0.78337 -1.411685,0.39049 z m -23.2,-0.28497 c 0,-0.13801 0.118626,-0.32425 0.263613,-0.41385 0.151163,-0.0934 0.195867,0.0136 0.104803,0.25093 -0.177278,0.46197 -0.368416,0.5465 -0.368416,0.16292 z m -3.424563,-0.54907 c 0,-0.36667 0.06053,-0.51667 0.134504,-0.33334 0.07398,0.18334 0.07398,0.48334 0,0.66667 -0.07398,0.18333 -0.134504,0.0333 -0.134504,-0.33333 z m 1.044328,-0.82223 C 31.497304,258.05 31.607949,256.86 31.732309,256.2 c 0.158472,-0.84105 0.182336,-0.44221 0.07978,1.33333 -0.161296,2.79237 -0.356688,3.57903 -0.325653,1.31111 z m 2.763125,-0.60133 c 0.646435,-1.14962 1.258958,-2.16962 1.36116,-2.26667 0.390987,-0.37124 -1.446578,3.05854 -1.977533,3.69104 -0.307429,0.36622 -0.03006,-0.27475 0.616373,-1.42437 z m 6.01711,1.16039 c 1.754162,-1.47001 3.176858,-1.67279 3.410968,-0.48616 0.05734,0.29066 -0.116904,0.36513 -0.666667,0.28491 -0.409365,-0.0597 -1.324251,0.14033 -2.033077,0.44457 -1.705216,0.73193 -1.825763,0.69069 -0.711224,-0.24332 z m -7.17859,-0.27017 C 33.476827,258.31706 33.6,258.16578 33.6,258.50459 c 0,0.14308 -0.186619,0.49308 -0.414712,0.77778 -0.391032,0.48808 -0.396584,0.47957 -0.09721,-0.14904 z m -5.816066,-1.54123 c -0.622598,-2.47134 -0.617986,-2.57001 0.04028,-0.86163 0.366725,0.95176 0.57904,1.8182 0.471808,1.92543 -0.107232,0.10724 -0.337669,-0.37147 -0.512085,-1.0638 z m 12.461322,1.01641 c 0,-0.29223 1.017694,-0.92443 2.066667,-1.28383 0.541253,-0.18544 0.866667,-0.19888 0.866667,-0.0358 0,0.14364 -0.21,0.32262 -0.466667,0.39773 -0.256667,0.0751 -0.916667,0.36137 -1.466667,0.63614 -0.55,0.27477 -1,0.40335 -1,0.28573 z M 17.884715,257.52 c -0.0175,-0.65948 0.400467,-1.32 0.835285,-1.32 0.117333,0 0.213333,0.18 0.213333,0.4 0,0.22 -0.101662,0.4 -0.225916,0.4 -0.124254,0 -0.356132,0.27 -0.515285,0.6 l -0.289369,0.6 z m 12.824056,-0.25333 c 0,-0.36667 0.06053,-0.51667 0.134504,-0.33334 0.07398,0.18334 0.07398,0.48334 0,0.66667 -0.07398,0.18333 -0.134504,0.0333 -0.134504,-0.33333 z m 13.475112,-1.13334 c -0.657947,-0.91666 -1.53848,-1.98422 -1.956742,-2.37235 -1.445714,-1.34157 -4.564082,-3.14359 -6.658349,-3.84767 -1.912469,-0.64297 -2.366773,-0.69467 -5.035459,-0.57306 -3.612061,0.16459 -5.71954,0.75082 -5.764267,1.60341 -0.02367,0.45129 -0.05955,0.48015 -0.152886,0.12301 -0.155246,-0.59407 -0.28157,-0.58553 -1.41618,0.0957 -2.247868,1.34971 -2.78352,1.63825 -2.533333,1.36464 0.66849,-0.73108 3.662027,-2.27438 5.6,-2.88706 6.177277,-1.95289 11.40477,-0.60924 16.133333,4.14683 1.246667,1.25391 2.483451,2.66985 2.748411,3.14651 0.758525,1.36461 0.339952,1.01744 -0.964528,-0.8 z m -14.77428,0.2 c 0.0021,-0.73333 0.05379,-1.00168 0.115085,-0.59633 0.0613,0.40535 0.05966,1.00535 -0.0036,1.33333 -0.06331,0.32799 -0.113458,-0.004 -0.111458,-0.737 z m 13.72373,-0.12767 c -0.256666,-0.24772 -0.466666,-0.61296 -0.466666,-0.81165 0,-0.22931 0.20176,-0.14468 0.552437,0.23173 0.660229,0.70867 0.583709,1.22606 -0.08577,0.57992 z m -19.628874,-0.68485 c -0.663257,-0.84319 -0.987519,-2.21108 -0.612938,-2.58566 0.193965,-0.19397 0.520933,-0.17852 1.074482,0.0508 0.911231,0.37744 1.431706,1.22176 0.588094,0.954 -0.736817,-0.23385 -0.894444,0.2342 -0.442854,1.31501 0.461272,1.10398 0.157251,1.23719 -0.606784,0.26588 z m 16.29076,-0.38748 C 39.606925,254.83183 39.173347,254.6 38.797741,254.6 c -0.79237,0 -0.903226,-0.67534 -0.143469,-0.87403 0.684349,-0.17896 1.27404,0.2978 1.493373,1.20736 0.209574,0.86908 0.103139,0.92948 -0.352426,0.2 z M 42,254.86667 C 41.909355,254.72 41.962272,254.6 42.117595,254.6 c 0.155322,0 0.282405,0.12 0.282405,0.26667 0,0.14666 -0.05292,0.26666 -0.117595,0.26666 -0.06468,0 -0.19176,-0.12 -0.282405,-0.26666 z m -9.982003,-0.42688 c -0.01827,-0.56856 0.511256,-2.33389 0.655926,-2.18674 0.04341,0.0442 -0.08237,0.68028 -0.279502,1.41362 -0.197133,0.73333 -0.366522,1.08124 -0.376424,0.77312 z m -5.06361,-0.26201 c 0.0128,-0.31065 0.07598,-0.37384 0.161109,-0.16111 0.07703,0.1925 0.06756,0.4225 -0.02104,0.51111 -0.08861,0.0886 -0.151637,-0.0689 -0.140059,-0.35 z m 2.11228,-0.0907 c 0,-0.28208 -0.3,-0.86941 -0.666667,-1.30516 -1.00892,-1.19904 -0.77924,-2.00435 0.247936,-0.86933 0.449181,0.49634 0.927909,2.68736 0.587176,2.68736 -0.09265,0 -0.168445,-0.23079 -0.168445,-0.51287 z M 44,254.3176 c 0,-0.15533 0.12,-0.20825 0.266667,-0.1176 0.146666,0.0907 0.266666,0.21773 0.266666,0.2824 0,0.0647 -0.12,0.1176 -0.266666,0.1176 C 44.12,254.6 44,254.47292 44,254.3176 Z m -4.092003,-0.7386 c -0.64784,-0.71585 -0.537936,-0.92126 0.225336,-0.42114 0.653654,0.42829 0.887,0.90881 0.441331,0.90881 -0.123936,0 -0.423936,-0.21945 -0.666667,-0.48767 z M 43.2,253.25093 c 0,-0.15532 0.12,-0.20824 0.266667,-0.1176 0.146666,0.0907 0.266666,0.21773 0.266666,0.28241 0,0.0647 -0.12,0.11759 -0.266666,0.11759 C 43.32,253.53333 43.2,253.40625 43.2,253.25093 Z m -17.249727,-1.38426 c 0.01432,-0.84334 0.128445,-1.53334 0.253617,-1.53334 0.125172,0 0.14513,0.13342 0.04435,0.29648 -0.10078,0.16307 -0.0465,0.38099 0.12062,0.48428 0.223631,0.13821 0.205048,0.46477 -0.07038,1.23685 L 25.924241,253.4 Z m 0.98306,0.61573 c 0,-0.28467 0.102664,-0.58104 0.228144,-0.65859 0.12548,-0.0776 0.171491,0.15537 0.102248,0.51759 -0.150405,0.78679 -0.330392,0.86361 -0.330392,0.141 z M 38.4,252.45943 c -0.440563,-0.33983 -0.531003,-0.51486 -0.266667,-0.51608 0.573398,-0.003 1.148646,0.41296 1.032502,0.74597 -0.05925,0.16989 -0.367528,0.0773 -0.765835,-0.22989 z m 3.866667,0.007 C 42.176021,252.32 42.221859,252.2 42.368525,252.2 c 0.146667,0 0.34083,0.12 0.431475,0.26667 0.09065,0.14666 0.04481,0.26666 -0.101859,0.26666 -0.146666,0 -0.340829,-0.12 -0.431474,-0.26666 z m -8.488888,-0.17778 c -0.338078,-0.33808 -0.17571,-0.62222 0.355554,-0.62222 0.296296,0 0.533334,0.17777 0.533334,0.4 0,0.40597 -0.564107,0.547 -0.888888,0.22222 z m 2.904586,-0.76404 c -0.414386,-0.31342 -0.434197,-0.39152 -0.09932,-0.39152 0.230072,0 0.567701,0.18 0.750285,0.4 0.422355,0.50891 0.02627,0.50375 -0.650968,-0.008 z m 4.650968,0.14182 c 0,-0.14667 0.12,-0.26667 0.266667,-0.26667 0.146667,0 0.266667,0.12 0.266667,0.26667 0,0.14666 -0.12,0.26666 -0.266667,0.26666 -0.146667,0 -0.266667,-0.12 -0.266667,-0.26666 z m -6.6,-0.54165 c -0.686514,-0.27594 -0.805384,-0.79169 -0.182469,-0.79169 0.566629,0 1.449136,0.49291 1.449136,0.80939 0,0.31221 -0.461965,0.30575 -1.266667,-0.0177 z m 5.666667,0.008 c -0.09065,-0.14666 -0.03773,-0.26666 0.117595,-0.26666 0.155322,0 0.282405,0.12 0.282405,0.26666 0,0.14667 -0.05292,0.26667 -0.117595,0.26667 -0.06468,0 -0.19176,-0.12 -0.282405,-0.26667 z M 20.933333,250.86667 C 20.842688,250.72 20.895606,250.6 21.050929,250.6 c 0.155322,0 0.282404,0.12 0.282404,0.26667 0,0.14666 -0.05292,0.26666 -0.117595,0.26666 -0.06468,0 -0.19176,-0.12 -0.282405,-0.26666 z m -4.941678,-2.14207 c -1.693705,-1.77288 -1.972753,-2.18344 -1.619035,-2.38207 0.442786,-0.24865 0.391298,-0.28526 -0.977106,-0.6948 -0.185801,-0.0556 -0.717182,0.1296 -1.180847,0.41157 -0.789233,0.47997 -0.865239,0.4838 -1.191131,0.06 -0.320155,-0.41631 -0.361595,-0.40472 -0.516138,0.14435 -0.176177,0.62593 -0.6407313,0.57516 -0.6407313,-0.07 0,-0.57084 1.0776863,-1.07395 1.3514873,-0.63093 0.341411,0.55241 2.199676,-0.40972 2.000907,-1.03599 -0.114853,-0.36187 0.11955,-0.56205 1.049869,-0.89659 1.256465,-0.45182 1.718674,-0.14832 0.487175,0.31989 l -0.710561,0.27016 0.976262,0.52324 c 0.536943,0.28779 1.205416,0.52325 1.485494,0.52325 0.366682,0 0.626014,0.34273 0.926412,1.22435 0.229449,0.6734 0.780729,1.8152 1.225067,2.53734 0.990342,1.60951 1.00199,1.83831 0.09359,1.83831 -0.5455,0 -1.197897,-0.50621 -2.760713,-2.14207 z m 10.941678,1.74207 c 0,-0.22 0.12,-0.4 0.266667,-0.4 0.146667,0 0.266667,0.18 0.266667,0.4 0,0.22 -0.12,0.4 -0.266667,0.4 -0.146667,0 -0.266667,-0.18 -0.266667,-0.4 z m 6.68772,-0.0222 c 0.0128,-0.31066 0.07598,-0.37384 0.16111,-0.16112 0.07703,0.1925 0.06756,0.4225 -0.02104,0.51112 -0.08861,0.0886 -0.151638,-0.0689 -0.140059,-0.35 z M 22,250.33333 c -0.09064,-0.14666 -0.03773,-0.26666 0.117595,-0.26666 0.155323,0 0.282405,0.12 0.282405,0.26666 0,0.14667 -0.05292,0.26667 -0.117595,0.26667 -0.06468,0 -0.19176,-0.12 -0.282405,-0.26667 z m 6,0.0157 c 0,-0.13801 0.12,-0.32509 0.266667,-0.41574 0.146666,-0.0906 0.266666,0.0223 0.266666,0.25093 0,0.22866 -0.12,0.41574 -0.266666,0.41574 C 28.12,250.6 28,250.48708 28,250.34907 Z m 1.247693,0.0614 c -0.08021,-0.12978 -0.04875,-0.39305 0.0699,-0.58503 0.163909,-0.26522 0.263008,-0.27259 0.412504,-0.0307 0.108218,0.1751 0.07677,0.43837 -0.0699,0.58503 -0.149189,0.14919 -0.330914,0.16272 -0.412504,0.0307 z m 1.041094,-0.0414 c -0.114872,-0.18586 -0.136843,-0.40995 -0.04882,-0.49797 0.238658,-0.23866 0.498872,0.11235 0.36997,0.49905 -0.09032,0.27098 -0.153138,0.27077 -0.321146,-0.001 z m 1.97788,-0.0358 c 0,-0.14666 0.12,-0.26666 0.266666,-0.26666 0.146667,0 0.266667,0.12 0.266667,0.26666 0,0.14667 -0.12,0.26667 -0.266667,0.26667 -0.146666,0 -0.266666,-0.12 -0.266666,-0.26667 z m 5.011805,-0.8121 C 35.754136,248.71624 33.415485,248.2 31.293045,248.2 c -1.06053,0 -2.0024,-0.12 -2.093045,-0.26667 -0.264768,-0.4284 3.725861,-0.31775 5.545515,0.15377 1.841469,0.47717 3.654485,1.32964 3.654485,1.71832 0,0.32464 0.06024,0.3399 -1.121528,-0.28419 z m -8.69956,-3.3879 c -1.015763,-1.58839 -2.445089,-4.59802 -2.445368,-5.14903 -3.26e-4,-0.64307 -0.680612,-1.46022 -0.908577,-1.09136 C 25.12059,240.06182 24.622273,240.2 24.117595,240.2 23.371001,240.2 23.2,240.30164 23.2,240.74542 c 0,0.47859 -0.114006,0.52403 -0.930517,0.37085 -0.719084,-0.1349 -0.967936,-0.0771 -1.095197,0.25458 -0.105618,0.27524 -0.482356,0.42915 -1.050435,0.42915 -0.487166,0 -1.054645,0.16889 -1.261066,0.37531 -0.475734,0.47573 -3.930832,0.69988 -3.930011,0.25496 7.47e-4,-0.40122 1.533304,-0.61233 2.478123,-0.34136 0.552243,0.15838 0.788701,0.11536 0.895491,-0.16293 0.132157,-0.3444 1.798303,-0.84686 2.060237,-0.62132 0.06089,0.0524 0.349202,-0.12049 0.640686,-0.38428 0.369002,-0.33394 0.741986,-0.4264 1.227997,-0.30442 0.587606,0.14748 0.698025,0.0863 0.698025,-0.38705 0,-0.48858 0.157211,-0.56224 1.2,-0.56224 0.755556,0 1.2,-0.11852 1.2,-0.32 0,-0.24889 0.07111,-0.24889 0.32,0 0.427109,0.42711 1.525051,0.38968 2.346667,-0.08 0.936256,-0.53522 1.646395,-0.50518 1.576424,0.0667 -0.0314,0.25667 0.07345,0.76667 0.233003,1.13334 l 0.290101,0.66666 0.01691,-0.73333 c 0.02582,-1.12056 1.616898,-2.48271 1.616898,-1.38426 0,0.22865 -0.12,0.34157 -0.266666,0.25093 -0.399392,-0.24684 -0.321616,0.0631 0.155752,0.62058 0.366285,0.42779 0.564517,0.45542 1.491736,0.20794 0.945917,-0.25248 1.11357,-0.2249 1.452818,0.23905 0.378339,0.51741 0.385523,0.51675 0.533462,-0.049 0.179437,-0.68617 1.407162,-1.08725 1.736853,-0.56741 0.383872,0.60527 0.249501,0.77833 -0.353685,0.45551 -0.506976,-0.27132 -0.658662,-0.21724 -1.162336,0.41443 -0.490832,0.61556 -0.605094,0.65917 -0.748435,0.28563 -0.119901,-0.31246 -0.422091,-0.41646 -1.037664,-0.35714 -0.796829,0.0768 -0.875432,0.16791 -0.95248,1.10408 -0.04858,0.59032 0.08394,1.27667 0.314427,1.62843 0.354861,0.54159 0.353112,0.65335 -0.01603,1.02248 -0.5392,0.5392 -0.529741,1.68563 0.01891,2.29188 0.238333,0.26335 0.433333,0.55938 0.433333,0.65783 5e-6,0.0984 -0.887485,0.179 -1.972195,0.179 h -1.972202 z m 17.887755,-0.67398 c -0.33,-0.1508 -0.598163,-0.46585 -0.595918,-0.7001 0.0027,-0.27038 0.07563,-0.31879 0.2,-0.13257 0.373462,0.55919 0.998816,0.56947 1.595918,0.0262 l 0.6,-0.54588 -0.02104,0.91315 c -0.01157,0.50224 -0.08126,0.76411 -0.154846,0.58195 -0.08787,-0.21753 -0.28657,-0.25182 -0.578946,-0.0999 -0.263432,0.13688 -0.690088,0.11937 -1.045155,-0.0429 z m -0.607723,-1.53643 c -0.215752,-0.13645 -0.655195,-0.24992 -0.976539,-0.25217 -0.321344,-0.002 -0.670002,-0.14281 -0.774794,-0.31237 -0.238651,-0.38614 1.708333,-0.11577 2.118264,0.29416 0.376776,0.37678 0.110989,0.57262 -0.366931,0.27038 z m -3.830413,-1.47806 c -0.237896,-0.61995 -0.189702,-0.83509 0.08856,-0.39534 0.210518,0.33269 0.30387,0.33269 0.712512,0 0.421275,-0.34298 0.451166,-0.33198 0.28699,0.10562 -0.100795,0.26867 -0.183262,0.53867 -0.183262,0.6 0,0.31509 -0.76557,0.0525 -0.904802,-0.31028 z m -2.561864,-0.34966 c 0,-0.13098 0.181037,-0.30761 0.402306,-0.39252 0.22127,-0.0849 0.540531,-0.45775 0.709472,-0.82853 0.330763,-0.72595 1.554888,-0.97089 1.554888,-0.31113 0,0.23105 -0.218125,0.32332 -0.6,0.25381 -0.451032,-0.0821 -0.712784,0.0926 -1.054264,0.70364 -0.428274,0.76636 -1.012402,1.09796 -1.012402,0.57473 z M 36.8,241.56927 c 0,-0.0959 0.24,-0.32419 0.533333,-0.50738 0.427235,-0.26682 0.534947,-0.26631 0.541443,0.003 0.0046,0.18935 0.126552,0.13224 0.279917,-0.13107 0.295182,-0.5068 1.180022,-0.62924 1.445307,-0.2 0.09367,0.15156 -0.133355,0.26666 -0.525965,0.26666 -0.379926,0 -0.748424,0.15 -0.818888,0.33334 C 38.124723,241.67267 36.8,241.88746 36.8,241.56927 Z m 6.713979,-0.59261 c -0.193014,-0.30906 -0.299718,-0.61314 -0.237123,-0.67574 0.185005,-0.185 0.781899,0.65615 0.680811,0.95941 -0.05102,0.15305 -0.250675,0.0254 -0.443688,-0.28367 z"
       id="path826"
       inkscape:connector-curvature="0" />
  </g>
</svg>
